<?xml version="1.0" encoding="UTF-8" standalone="no"?>
<!-- Created with Inkscape (http://www.inkscape.org/) -->

<svg
   xmlns:dc="http://purl.org/dc/elements/1.1/"
   xmlns:cc="http://creativecommons.org/ns#"
   xmlns:rdf="http://www.w3.org/1999/02/22-rdf-syntax-ns#"
   xmlns:svg="http://www.w3.org/2000/svg"
   xmlns="http://www.w3.org/2000/svg"
   xmlns:sodipodi="http://sodipodi.sourceforge.net/DTD/sodipodi-0.dtd"
   xmlns:inkscape="http://www.inkscape.org/namespaces/inkscape"
   width="13.229167mm"
   height="9.8301039mm"
   viewBox="0 0 13.229167 9.830104"
   version="1.1"
   id="svg8"
   inkscape:version="0.92.2 (5c3e80d, 2017-08-06)"
   sodipodi:docname="Burger-menu.svg">
  <defs
     id="defs2" />
  <sodipodi:namedview
     id="base"
     pagecolor="#ffffff"
     bordercolor="#666666"
     borderopacity="1.0"
     inkscape:pageopacity="0.0"
     inkscape:pageshadow="2"
     inkscape:zoom="1.979899"
     inkscape:cx="142.21262"
     inkscape:cy="56.76765"
     inkscape:document-units="mm"
     inkscape:current-layer="svg8"
     showgrid="false"
     inkscape:window-width="1920"
     inkscape:window-height="1001"
     inkscape:window-x="-9"
     inkscape:window-y="-9"
     inkscape:window-maximized="1" />
  <metadata
     id="metadata5">
    <rdf:RDF>
      <cc:Work
         rdf:about="">
        <dc:format>image/svg+xml</dc:format>
        <dc:type
           rdf:resource="http://purl.org/dc/dcmitype/StillImage" />
        <dc:title></dc:title>
      </cc:Work>
    </rdf:RDF>
  </metadata>
  <g
     inkscape:label="Calque 1"
     inkscape:groupmode="layer"
     id="layer1"
     transform="translate(-27.59226,-59.309708)">
    <path
       style="opacity:1;vector-effect:none;fill:#000000;fill-opacity:1;stroke:none;stroke-width:1.62553036;stroke-linecap:round;stroke-linejoin:round;stroke-miterlimit:4;stroke-dasharray:none;stroke-dashoffset:0;stroke-opacity:1;paint-order:markers fill stroke"
       d="m 28.791053,59.309708 c -0.664132,0 -1.198793,0.534661 -1.198793,1.198793 0,0.664132 0.534661,1.198793 1.198793,1.198793 h 10.831581 c 0.664132,0 1.198793,-0.534661 1.198793,-1.198793 0,-0.664132 -0.534661,-1.198793 -1.198793,-1.198793 z m 0,3.716399 c -0.664132,0 -1.198793,0.534661 -1.198793,1.198793 0,0.664133 0.534661,1.198793 1.198793,1.198793 h 10.831581 c 0.664132,0 1.198793,-0.53466 1.198793,-1.198793 0,-0.664132 -0.534661,-1.198793 -1.198793,-1.198793 z m 0,3.716118 c -0.664132,0 -1.198793,0.534661 -1.198793,1.198793 0,0.664133 0.534661,1.198794 1.198793,1.198794 h 10.831581 c 0.664132,0 1.198793,-0.534661 1.198793,-1.198794 0,-0.664132 -0.534661,-1.198793 -1.198793,-1.198793 z"
       id="rect4504"
       inkscape:connector-curvature="0" />
  </g>
</svg>
