<?xml version="1.0" encoding="UTF-8" standalone="no"?>
<!-- Created with Inkscape (http://www.inkscape.org/) -->

<svg
   xmlns:dc="http://purl.org/dc/elements/1.1/"
   xmlns:cc="http://creativecommons.org/ns#"
   xmlns:rdf="http://www.w3.org/1999/02/22-rdf-syntax-ns#"
   xmlns:svg="http://www.w3.org/2000/svg"
   xmlns="http://www.w3.org/2000/svg"
   xmlns:sodipodi="http://sodipodi.sourceforge.net/DTD/sodipodi-0.dtd"
   xmlns:inkscape="http://www.inkscape.org/namespaces/inkscape"
   width="13.229167mm"
   height="14.707597mm"
   viewBox="0 0 13.229167 14.707597"
   version="1.1"
   id="svg8"
   style="enable-background:new"
   inkscape:version="0.92.2 (5c3e80d, 2017-08-06)"
   sodipodi:docname="Disconnect-btn.svg">
  <defs
     id="defs2" />
  <sodipodi:namedview
     id="base"
     pagecolor="#ffffff"
     bordercolor="#666666"
     borderopacity="1.0"
     inkscape:pageopacity="0.0"
     inkscape:pageshadow="2"
     inkscape:zoom="0.49497475"
     inkscape:cx="-241.64367"
     inkscape:cy="111.47746"
     inkscape:document-units="mm"
     inkscape:current-layer="layer1"
     showgrid="false"
     inkscape:window-width="1920"
     inkscape:window-height="1001"
     inkscape:window-x="-9"
     inkscape:window-y="-9"
     inkscape:window-maximized="1" />
  <metadata
     id="metadata5">
    <rdf:RDF>
      <cc:Work
         rdf:about="">
        <dc:format>image/svg+xml</dc:format>
        <dc:type
           rdf:resource="http://purl.org/dc/dcmitype/StillImage" />
        <dc:title></dc:title>
      </cc:Work>
    </rdf:RDF>
  </metadata>
  <g
     inkscape:label="Calque 1"
     inkscape:groupmode="layer"
     id="layer1"
     transform="translate(-55.184746,-71.759724)">
    <path
       style="fill:#000000;fill-opacity:1;stroke:none;stroke-width:0.05716327"
       d="m 61.112421,71.759724 v 8.099879 H 62.50064 V 71.759724 Z M 59.88743,73.52263 a 6.6146076,6.6146076 0 0 0 -4.702684,6.330162 6.6146076,6.6146076 0 0 0 6.614528,6.614529 6.6146076,6.6146076 0 0 0 6.614639,-6.614529 6.6146076,6.6146076 0 0 0 -4.688282,-6.321454 v 1.467824 a 5.2263566,5.2263566 0 0 1 3.300063,4.85363 5.2263566,5.2263566 0 0 1 -5.22642,5.226309 5.2263566,5.2263566 0 0 1 -5.226309,-5.226309 5.2263566,5.2263566 0 0 1 3.314465,-4.86312 z"
       id="path10"
       inkscape:connector-curvature="0" />
  </g>
</svg>
